<?xml version="1.0" encoding="utf-8"?>
<!-- Generator: Adobe Illustrator 19.0.0, SVG Export Plug-In . SVG Version: 6.00 Build 0)  -->
<svg version="1.1" xmlns="http://www.w3.org/2000/svg" xmlns:xlink="http://www.w3.org/1999/xlink" x="0px" y="0px"
	 viewBox="0 0 1600 1200" style="enable-background:new 0 0 1600 1200;" xml:space="preserve">
<style type="text/css">
	.st0{fill:#FFFFFF;}
	.st1{fill:#F9D8AD;}
	.st2{fill:#373031;}
	.st3{fill:#338498;}
	.st4{fill:#F23A7D;}
	.st5{fill:#BF2E63;}
	.st6{fill:none;stroke:#373031;stroke-width:7;stroke-miterlimit:10;}
	.st7{fill:#D99282;}
	.st8{fill:#FFC7BB;}
	.st9{fill:#FFB949;}
</style>
<g id="Layer_2">
	<rect id="XMLID_149_" class="st0" width="1600" height="1200"/>
</g>
<g id="Layer_1">
	<g id="XMLID_146_">
		<path id="XMLID_31_" class="st1" d="M1327.9,332.8c-56.3,0-102-45.7-102-102c0-11.6,1.9-22.7,5.5-33c-14.2-3.8-29.1-5.8-44.5-5.8
			c-96.1,0-173.9,77.9-173.9,173.9s77.9,173.9,173.9,173.9c96.1,0,173.9-77.9,173.9-173.9c0-12.8-1.4-25.3-4-37.3
			C1347.6,331.3,1337.9,332.8,1327.9,332.8z"/>
		<g id="XMLID_14_">
			<path id="XMLID_25_" class="st1" d="M140,523.2H1004c-5-9.3-10.2-18.5-15.8-27.5H155.8C150.2,504.7,145,513.9,140,523.2z"/>
			<path id="XMLID_29_" class="st1" d="M975.6,476.4c-88.1-128.6-236-213-403.6-213c-89.7,0-173.7,24.1-245.9,66.3
				c-62.8,36.6-116.7,86.9-157.7,146.7H975.6z"/>
			<path id="XMLID_30_" class="st1" d="M119.4,567.2h905.2c-3.4-8.3-7-16.5-10.9-24.6H130.3C126.4,550.7,122.8,558.9,119.4,567.2z"
				/>
			<path id="XMLID_78_" class="st1" d="M970.7,1035c-3.8,5.4-7.8,10.7-11.8,16c-2.4,3.2-4.9,6.3-7.5,9.4H464.5
				c3.2-17.6,4.9-35.7,4.9-54.2c0-166.3-134.8-301-301-301c-29.1,0-57.3,4.1-83.9,11.9c3.2-45.5,12.7-89.3,27.5-130.5H1032
				c0.8,2.3,1.7,4.7,2.5,7c-106.4,24.1-185.8,119.3-185.8,233C848.6,916.1,897.9,994.1,970.7,1035z"/>
		</g>
	</g>
	<g id="XMLID_147_">
		<g id="XMLID_69_">
			<path id="XMLID_76_" class="st2" d="M265.5,370.6c-12.5,11.8-29.7,18.8-40.3,32.7c-11.1,14.6-8.1,33.1,2.8,46.8
				c26.3,33,85.9,24.3,102.4,67.3c6.8,17.6,3.7,39.2-8.8,53.5c-15,17.1-39.1,20.8-59.5,27.9c-17.8,6.2-36,16.5-41.7,35.8
				c-5.5,18.3,6,32.5,20.6,41.8c20.1,12.8,41.7,22.9,61.7,35.9c20.9,13.7,40.4,29.7,55.6,49.7c0.6,0.8,1.9,0,1.3-0.8
				c-25.3-33.2-61.6-54.8-97.5-74.7c-16.3-9-40.8-19.3-41.6-41.1c-1-24.1,22.2-38.3,42.1-45.2c18.7-6.5,39.4-10.1,55-23.2
				c12.6-10.7,18.8-27.2,17.9-43.5c-0.9-17-9.6-31.5-23.6-41.2c-17.2-11.9-38.1-15.8-56.8-24.5c-11.1-5.1-21.6-12.1-28.4-22.5
				c-6.9-10.6-9.5-23.8-3.7-35.5c8.8-17.7,30-25.3,43.8-38.3C267.3,371,266.2,370,265.5,370.6L265.5,370.6z"/>
		</g>
		<rect id="XMLID_68_" x="264.7" y="394.1" class="st2" width="20.2" height="665.9"/>
		<polygon id="XMLID_44_" class="st2" points="364.5,394.1 186.8,394.1 208.8,181 340.8,181 		"/>
		<g id="XMLID_92_">
			<path id="XMLID_93_" class="st0" d="M205.8,377.8L205.8,377.8c-0.8-0.1-1.4-0.8-1.3-1.6l18.3-173.2c0.1-0.8,0.8-1.4,1.6-1.3h0
				c0.8,0.1,1.4,0.8,1.3,1.6l-18.3,173.2C207.4,377.3,206.6,377.9,205.8,377.8z"/>
		</g>
	</g>
	<g id="XMLID_79_">
		<path id="XMLID_27_" class="st2" d="M1235.3,897.2c0,0-38.9-98.2-32.7-140.8c0,0,48.8,40.8,43.2,140.8H1235.3z"/>
		<path id="XMLID_33_" class="st2" d="M1255.7,897.2c0,0-31.5-104.4-16.1-197.6c0,0,58.1,74.1,29.6,197.6H1255.7z"/>
		<path id="XMLID_35_" class="st3" d="M1261.9,897.2c0,0,0-178.8,66.7-239.9c0,0-26,182.5-51.5,239.9H1261.9z"/>
		<path id="XMLID_4_" class="st3" d="M1295.2,829.5c0,0,13.9-32.9,43.1-42.6c0,0,0.5,55.1-45.4,110.2h-7.4
			C1285.5,897.2,1283.2,862.4,1295.2,829.5z"/>
		<polygon id="XMLID_47_" class="st4" points="1207.5,897.2 1328.6,897.2 1312.2,1060.3 1226.9,1060.3 		"/>
		<polygon id="XMLID_80_" class="st5" points="1207.5,897.2 1285.3,1060.3 1226.9,1060.3 		"/>
	</g>
	<g id="XMLID_148_">
		<g id="XMLID_70_">
			<rect id="XMLID_73_" x="756.3" y="232.4" class="st2" width="103.2" height="141.5"/>
			<path id="XMLID_77_" class="st0" d="M867.5,381.9H748.3V224.4h119.2V381.9z M764.3,365.9h87.2V240.4h-87.2V365.9z"/>
			<rect id="XMLID_71_" x="708" y="166.2" class="st6" width="199.8" height="274"/>
			<g id="XMLID_72_">
				<path id="XMLID_74_" class="st0" d="M776,256.2c7-2.1,14.7-4.6,22-2.5c5.8,1.7,11.8,7.5,10.6,14.1c-1.1,5.6-6.8,8.8-10.7,12.4
					c-2.5,2.4-5.3,6.5-2.7,9.8c2.5,3.1,7.2,2,10.6,2.8c4.6,1.2,4.7,6,2.7,9.5c-1.4,2.6-3.7,4.6-5.4,6.9c-2.7,3.6-5.2,8.4-4.2,13.1
					c1,4.7,5.1,6.8,9.2,8.3c12.9,4.7,23.6,12.6,30.9,24.3c0.7,1.2,2.5,0.1,1.8-1.1c-6-9.7-14.6-17.6-24.9-22.4
					c-5.5-2.6-15.2-3.7-15.1-11.4c0.1-7.1,6.4-11.1,9.6-16.7c2-3.5,2.5-8.6-1.1-11.3c-3.2-2.4-13.8-0.2-12.9-6.1
					c0.5-3,4.3-5.4,6.4-7.2c1.8-1.5,3.7-3.1,5.2-5c2.9-3.7,3.6-8.3,1.7-12.6c-6.1-13.8-22.9-10.4-34.3-6.9
					C774.2,254.5,774.7,256.6,776,256.2L776,256.2z"/>
			</g>
		</g>
		<g id="XMLID_84_">
			<rect id="XMLID_91_" x="999.1" y="257.4" class="st2" width="77" height="105.5"/>
			<path id="XMLID_88_" class="st0" d="M1082,368.9h-88.9V251.4h88.9V368.9z M1005.1,357h65v-93.6h-65V357z"/>
			<rect id="XMLID_87_" x="963.1" y="208" class="st6" width="149" height="204.4"/>
			<g id="XMLID_85_">
				<path id="XMLID_86_" class="st0" d="M1013.8,275.1c5.2-1.6,11-3.4,16.4-1.9c4.3,1.2,8.8,5.6,7.9,10.5c-0.8,4.2-5.1,6.6-8,9.3
					c-1.9,1.8-4,4.8-2,7.3c1.9,2.3,5.3,1.5,7.9,2.1c3.4,0.9,3.5,4.4,2,7.1c-1,1.9-2.8,3.4-4.1,5.1c-2,2.7-3.9,6.3-3.2,9.8
					c0.7,3.5,3.8,5.1,6.9,6.2c9.6,3.5,17.6,9.4,23.1,18.2c0.5,0.9,1.9,0.1,1.4-0.8c-4.5-7.2-10.9-13.1-18.6-16.7
					c-4.1-1.9-11.4-2.8-11.3-8.5c0.1-5.3,4.8-8.3,7.2-12.4c1.5-2.6,1.9-6.4-0.8-8.4c-2.4-1.8-10.3-0.2-9.6-4.5
					c0.4-2.2,3.2-4,4.8-5.4c1.4-1.1,2.8-2.3,3.9-3.7c2.1-2.8,2.7-6.2,1.3-9.4c-4.6-10.3-17.1-7.8-25.6-5.2
					C1012.4,273.9,1012.8,275.4,1013.8,275.1L1013.8,275.1z"/>
			</g>
		</g>
	</g>
	<g id="XMLID_48_">
		<path id="XMLID_43_" class="st7" d="M1037.4,992.2c0,0,16.7,2.5,7.3,14.1l-11.1,11.3c0,0-26.6,16.8-27.9,20.8
			c-1.3,4-11.5,30.3-23,18.8c-11.5-11.5,0-15.4-12.7-28.5c-12.7-13.1-12.7-13.1-12.7-13.1l21.1-15.1c0,0,3.7,8.9,15.1,9.8
			s39.4-3.1,39.4-3.1L1037.4,992.2z"/>
		<path id="XMLID_11_" class="st7" d="M731.7,751.5c0,0,11.3,2.3,20.2-7.8c8.8-10.1,17.3-30.6,36.6-28.1c19.2,2.5,21.7,5.1,22.4,7
			c0.6,1.9-28.7,56.7-82.3,58.6L731.7,751.5z"/>
		<path id="XMLID_19_" class="st2" d="M868.7,746.9h-82.3c-2.3,0-4.2-1.9-4.2-4.2v-15.8c0-2.3,1.9-4.2,4.2-4.2h82.3
			c2.3,0,4.2,1.9,4.2,4.2v15.8C872.9,745,871.1,746.9,868.7,746.9z"/>
		<path id="XMLID_21_" class="st2" d="M768.1,805.1l-21.6-17.2c-1.9-1.5-2.2-4.4-0.7-6.3l49.9-62.6c1.5-1.9,4.4-2.2,6.3-0.7
			l21.6,17.2c1.9,1.5,2.2,4.4,0.7,6.3l-49.9,62.6C772.8,806.3,770,806.6,768.1,805.1z"/>
		<path id="XMLID_6_" class="st2" d="M322.3,623.5c0,0,228.2-39.3,187.1,262l-187.1,70.6V623.5z"/>
		<path id="XMLID_16_" class="st7" d="M509.4,761.9l37-51.7l45.4,54.8l139.9-13.5l6.7,17.7c0,0-146,47.3-153.2,43.9
			S509.4,761.9,509.4,761.9z"/>
		<polygon id="XMLID_12_" class="st5" points="527.1,683.1 558.4,716 530.6,778.4 513.9,683.1 		"/>
		<path id="XMLID_15_" class="st5" d="M527.1,683.1c0,0-11.3-45.4-84.6-76.9C442.5,606.2,463.1,689.3,527.1,683.1z"/>
		<polygon id="XMLID_45_" class="st2" points="864.1,822.5 581.4,894.6 605.6,956.2 843.9,890.5 960,1021.1 983.3,998.4 		"/>
		<path id="XMLID_34_" class="st4" d="M581.4,894.6c-1.9,6.3-7.5,12.9-15.6,19.4C522.5,949.1,408,984.3,408,984.3
			c-100.1-275.2,1.8-356.2,18.7-367.4c1.5-1,2.3-1.4,2.3-1.4c0.4-0.8,0.8-1.6,1.2-2.3c6.9-12.4,12.4-7.1,12.4-7.1
			c2.8,14.5,84.6,76.9,84.6,76.9c-12.2,27.6,9.1,96.6,28.4,148.3C568.9,867.1,581.4,894.6,581.4,894.6z"/>
		<path id="XMLID_28_" class="st8" d="M516.1,674.6c-38.4-19.8-59.8-44.2-72.2-65.9c-0.5-0.8-1-1.7-1.4-2.5
			c2.6-5.6,5.2-11.2,7.8-16.8c1.9-4.2,3.9-8.3,5.9-12.5L507,603l-14.5,4.1l15.4,43.7L516.1,674.6z"/>
		<path id="XMLID_13_" class="st2" d="M406.8,963.6c0,0,80.6,118.8,200.2,79.3c119.6-39.5,220.1-121.5,220.1-121.5l241.4,113.1
			l6.2-21.2L835.2,824.5c0,0-257.6,48-282.5,70.9S406.8,963.6,406.8,963.6z"/>
		<path id="XMLID_22_" class="st5" d="M581.4,894.6c-1.9,6.3-7.5,12.9-15.6,19.4l-39.9,8.4c-52-21.2-109.4-152.8-109.4-152.8
			l34.9,28.4l21.1-15.7l83,49.2C568.9,867.1,581.4,894.6,581.4,894.6z"/>
		<path id="XMLID_5_" class="st8" d="M535.4,509.4v24.9l-4.4,10.4l12.6,18.9l-8.5,8.8l4.1,36.9c0,0-80.1-4.1-84.8-50
			S466.3,489.2,535.4,509.4z"/>
		<path id="XMLID_8_" class="st2" d="M578,478.6c0,0-19.3,4.6-29,0c0,0,13-1.7,16.8-8.4c0,0-25.2,6.3-71.9-2.5
			c-46.6-8.8-54.2,12.6-54.2,12.6s-17.4,21.7-9.3,43.1c0,0,0,0,0,0c0,0,5.2,34.8,24.1,53.2l6.8,39.2l80.3,19.9l10.7-26.5l-17.3-36.9
			l-9.1,3l-10.9,9.2l-30.7-9.2l-16.4-31.3c0,0,9.1-5.4,12.2-17.1c0,0,17.4,6.9,43.7,2.2c0,0-17.5-8-17.4-12.8
			C506.4,516.5,550.3,545.9,578,478.6z"/>
		<path id="XMLID_2_" class="st8" d="M472.5,540.4c0,0-11.3-27.3-17-13S458.6,555.7,472.5,540.4z"/>
		<polygon id="XMLID_17_" class="st7" points="461.4,615.9 511.6,661.7 498.6,625.1 		"/>
		<path id="XMLID_20_" class="st7" d="M466.2,535.7c0,0-6.8-14.1-8.5-6.1c-1.7,8,4.3,13,4.3,13l2.2-5.6l-4.5-1.4H466.2z"/>
		<path id="XMLID_32_" class="st5" d="M479.3,669.9c-1.4-0.7-36.6-17.1-52.6-53c1.5-1,2.3-1.4,2.3-1.4c0.4-0.8,0.8-1.6,1.2-2.3
			C430.1,613.3,444.4,645.1,479.3,669.9z"/>
		<path id="XMLID_41_" class="st8" d="M1074.1,1015.2l11.2,4.5l47.3-36.3l-4.4-15.9c0,0,11.6-7,14,0.8l0.3,8.7l2.7-2.5l7.8,5.1
			l-3.1,5l6.1,7.8l-2.1,1.8l1.5,6.1c0,0,2.3,6-7.5,2.4l-2.9,1.6l2.5,1.1c0,0-1.1,8-3.1,7.2c-2-0.8-7,1.9-10.9-3.6
			c0,0-12.9,12.2-9.2,43.8c-0.2,15-21.9,3.9-27.1-1.6c-5.2-5.5-20.1-15.8-28.6-17.5L1074.1,1015.2z"/>
		<g id="XMLID_95_">
			<polygon id="XMLID_104_" class="st0" points="1068.4,1021.5 833.5,873.6 752.7,916.4 752.3,915.6 833.5,872.4 1069,1020.7 			"/>
		</g>
		<path id="XMLID_18_" class="st3" d="M322.3,623.5c0,0-219.4,154.2-93.3,436.6h587.4c0,0-21.6-332.9-252.8-232
			S322.3,623.5,322.3,623.5z"/>
		<polygon id="XMLID_7_" class="st2" points="694.5,819 527.1,894.7 502.2,846 		"/>
		<path id="XMLID_26_" class="st8" d="M843.5,747.7l-14.4-8.6c-2-1.2-4.4-1.5-6.7-0.8c-6.7,2.1-21.4,5.4-27.9-3.1
			c0,0,28.1-3.8,25.1-14c-3-10.3-8.2,3.6-16.8,3.6s-20.8-0.4-24.1,5.4c-3.3,5.8-10.4,22.5-17.8,26.9c-7.6,4.5-20.2,7.9-20.2,7.9
			L551.3,800l-35.1-50.4l-64.8,48.3c0,0,70.2,67.2,78.2,72.5c7.9,5.3,222.2-71.6,222.2-71.6l10.6-5.5c0,0,36.8,11.1,61.4-9
			C848.3,764.2,843.5,747.7,843.5,747.7z"/>
		<polygon id="XMLID_23_" class="st7" points="516.3,749.6 467.5,813.2 451.4,797.9 		"/>
		<g id="XMLID_105_">
			<path id="XMLID_112_" class="st0" d="M595,975.2c-117.5-10.3-201.3-48.9-249-114.5c-32.7-45-41.7-94.5-43.4-128.1
				c-1.9-36.4,4-62.5,4-62.8l1,0.2c-0.1,0.3-5.9,26.3-4,62.5c1.8,33.5,10.7,82.7,43.3,127.5c47.6,65.4,131.1,103.8,248.3,114.1
				L595,975.2z"/>
		</g>
		<g id="XMLID_106_">
			<path id="XMLID_111_" class="st0" d="M486.5,1033.4c-101.1-9.8-170.6-45.1-206.6-104.9c-31.1-51.8-30.7-112.7-24.9-154.7
				c6.3-45.5,20.1-79.1,20.2-79.5l0.9,0.4c-0.1,0.3-13.9,33.9-20.2,79.3c-5.8,41.8-6.2,102.5,24.8,154
				c35.8,59.6,105,94.7,205.8,104.4L486.5,1033.4z"/>
		</g>
		<g id="XMLID_107_">
			<path id="XMLID_110_" class="st0" d="M738.9,1026.3l-1-0.3c13.8-49.4,1.3-90.8-11.6-116.8c-14-28.2-31.5-45-31.7-45.2l0.7-0.7
				c0.2,0.2,17.8,17,31.9,45.4C740.3,935,752.9,976.6,738.9,1026.3z"/>
		</g>
		<g id="XMLID_108_">
			<path id="XMLID_109_" class="st0" d="M690.4,1006.2l-0.9-0.5c26.6-49.2-11.6-109.9-12-110.5l0.8-0.5c0.1,0.2,9.9,15.6,16.2,36.9
				C700.4,951.3,704.5,980.3,690.4,1006.2z"/>
		</g>
		<g id="XMLID_94_">
			<path id="XMLID_103_" class="st0" d="M532.1,509.2c-6.8,0-13.7-2.2-20.7-6.5l0.5-0.8c9.4,5.9,18.7,7.7,27.7,5.4
				c16.5-4.2,26.2-21,26.3-21.2l0.9,0.5c-0.1,0.2-10.1,17.3-26.9,21.6C537.3,508.9,534.7,509.2,532.1,509.2z"/>
		</g>
		<g id="XMLID_81_">
			<polygon id="XMLID_101_" class="st0" points="537.8,625.9 536.9,625.6 543,606.2 533.5,578.8 534.5,578.5 544.1,606.2 544,606.4 
							"/>
		</g>
		<g id="XMLID_96_">
			
				<rect id="XMLID_99_" x="465.2" y="617" transform="matrix(0.969 0.2469 -0.2469 0.969 167.902 -103.9477)" class="st0" width="66.5" height="1"/>
		</g>
		<g id="XMLID_97_">
			<path id="XMLID_98_" class="st0" d="M531.2,500.4c-4.4,0-8.9-1.3-13.1-4.8l0.6-0.8c16.7,14,39.3-8.7,39.6-8.9l0.7,0.7
				C558.9,486.9,545.4,500.4,531.2,500.4z"/>
		</g>
	</g>
	<g id="XMLID_135_">
		<g id="XMLID_50_">
			<path id="XMLID_62_" class="st9" d="M1264.3,485.6l-5-5.1l-4.9-5.1l-9.9-10.2c-3.3-3.4-6.6-6.8-9.8-10.3l-9.8-10.3l1.7,0.3
				c-6.9,3.6-13.8,7.2-20.8,10.7l-20.8,10.6l-1.4,0.7l-1-1.3c-5.8-7.8-11.7-15.6-17.5-23.5c-5.8-7.9-11.6-15.7-17.3-23.6l1.9,0.7
				l-19.2,4.6l-19.3,4.5l-0.7,0.2l-0.5-0.4l-10.1-8.5c-3.4-2.8-6.7-5.7-10-8.5l-10-8.6c-3.3-2.8-6.7-5.7-10-8.6
				c3.5,2.6,7,5.3,10.5,7.9l10.5,8c3.5,2.7,7,5.3,10.4,8l10.4,8.1l-1.2-0.3l19.1-5.1l19.1-5l1.2-0.3l0.7,1
				c5.9,7.8,11.7,15.7,17.5,23.5c5.8,7.8,11.6,15.7,17.4,23.6l-2.4-0.6l21-10.3c7-3.4,14-6.8,21.1-10.2l1-0.5l0.7,0.8l9.4,10.6
				c3.1,3.6,6.3,7.1,9.4,10.7l9.3,10.7l4.6,5.4L1264.3,485.6z"/>
		</g>
		<g id="XMLID_49_">
			<path id="XMLID_61_" class="st2" d="M1272.2,710.1l-4.6,5.4l-4.6,5.4l-9.3,10.7c-3.1,3.6-6.2,7.1-9.4,10.7l-9.4,10.6l-0.7,0.8
				l-1-0.5c-7-3.4-14.1-6.8-21.1-10.2l-21-10.3l2.4-0.6c-5.8,7.9-11.6,15.7-17.4,23.6c-5.8,7.8-11.6,15.7-17.5,23.5l-0.7,1l-1.2-0.3
				l-19.1-5l-19.1-5.1l1.2-0.3l-10.4,8.1c-3.5,2.7-6.9,5.4-10.4,8l-10.5,8c-3.5,2.7-7,5.3-10.5,7.9c3.3-2.9,6.6-5.8,10-8.6l10-8.6
				c3.3-2.9,6.7-5.7,10-8.5l10.1-8.5l0.5-0.4l0.7,0.2l19.3,4.5l19.2,4.6l-1.9,0.7c5.7-7.9,11.6-15.7,17.3-23.6
				c5.8-7.9,11.7-15.7,17.5-23.5l1-1.3l1.4,0.7l20.8,10.6c7,3.5,13.9,7.1,20.8,10.7l-1.7,0.3l9.8-10.3c3.3-3.4,6.5-6.9,9.8-10.3
				l9.9-10.2l4.9-5.1L1272.2,710.1z"/>
		</g>
		<g id="XMLID_52_">
			
				<rect id="XMLID_59_" x="1154.7" y="581.1" transform="matrix(0.5533 0.833 -0.833 0.5533 1096.8679 -650.8527)" class="st4" width="1.3" height="232.5"/>
		</g>
		<g id="XMLID_53_">
			
				<rect id="XMLID_58_" x="1037" y="490.6" transform="matrix(0.9475 0.3198 -0.3198 0.9475 217.3536 -341.1381)" class="st4" width="220.9" height="1.3"/>
		</g>
		<g id="XMLID_54_">
			
				<rect id="XMLID_57_" x="1156.3" y="611.2" transform="matrix(0.4453 0.8954 -0.8954 0.4453 1233.6177 -669.2919)" class="st4" width="1.3" height="99.6"/>
		</g>
		<g id="XMLID_55_">
			
				<rect id="XMLID_56_" x="1104.5" y="540.3" transform="matrix(0.9966 8.238276e-002 -8.238276e-002 0.9966 48.5711 -95.2425)" class="st4" width="147.9" height="1.3"/>
		</g>
	</g>
	<path id="XMLID_100_" class="st2" d="M1516.8,1057.6v5.7c0,1.3-1,2.3-2.3,2.3H161.5c-1.3,0-2.3-1-2.3-2.3v-5.7c0-1.2,0.9-2.1,2-2.3
		c0.1,0,0.2,0,0.3,0h1353.1C1515.8,1055.3,1516.8,1056.3,1516.8,1057.6z"/>
	<g id="XMLID_145_">
		<g id="XMLID_9_">
			<path id="XMLID_139_" class="st0" d="M492.9,388.8l13-75.9l75.9,13L492.9,388.8z M511.4,320.7l-9.1,53.1l62.3-44L511.4,320.7z"/>
		</g>
		<g id="XMLID_10_">
			<path id="XMLID_136_" class="st0" d="M466.9,424.6l13-75.9l75.9,13L466.9,424.6z M485.4,356.5l-9.1,53.1l62.3-44L485.4,356.5z"/>
		</g>
		<g id="XMLID_36_">
			<path id="XMLID_117_" class="st1" d="M559.9,184c-38.6,0-70-31.4-70-70s31.4-70,70-70s70,31.4,70,70S598.5,184,559.9,184z
				 M559.9,50c-35.3,0-64,28.7-64,64s28.7,64,64,64s64-28.7,64-64S595.1,50,559.9,50z"/>
		</g>
		<g id="XMLID_37_">
			<path id="XMLID_114_" class="st1" d="M685.6,104c-20.4,0-37-16.6-37-37s16.6-37,37-37s37,16.6,37,37S706,104,685.6,104z
				 M685.6,34c-18.2,0-33,14.8-33,33s14.8,33,33,33s33-14.8,33-33S703.8,34,685.6,34z"/>
		</g>
		<g id="XMLID_42_">
			<path id="XMLID_124_" class="st1" d="M1012.8,151c-20.4,0-37-16.6-37-37s16.6-37,37-37s37,16.6,37,37S1033.2,151,1012.8,151z
				 M1012.8,81c-18.2,0-33,14.8-33,33s14.8,33,33,33s33-14.8,33-33S1031,81,1012.8,81z"/>
		</g>
		<g id="XMLID_102_">
			<path id="XMLID_121_" class="st1" d="M1058.2,172c-20.4,0-37-16.6-37-37s16.6-37,37-37c20.4,0,37,16.6,37,37
				S1078.6,172,1058.2,172z M1058.2,102c-18.2,0-33,14.8-33,33s14.8,33,33,33s33-14.8,33-33S1076.3,102,1058.2,102z"/>
		</g>
		<g id="XMLID_120_">
			<path id="XMLID_128_" class="st1" d="M982.3,733.4l-27.7-63.5l63.5-27.7l27.7,63.5L982.3,733.4z M961.2,672.5l23.7,54.3
				l54.3-23.7l-23.7-54.3L961.2,672.5z"/>
		</g>
		<g id="XMLID_127_">
			<path id="XMLID_131_" class="st1" d="M1028.8,752.4l-21.3-48.9l48.9-21.3l21.3,48.9L1028.8,752.4z M1012.6,705.5l18.2,41.8
				l41.8-18.2l-18.2-41.8L1012.6,705.5z"/>
		</g>
	</g>
	<g id="XMLID_1_">
		<rect id="XMLID_24_" x="1355" y="406.4" class="st2" width="16.4" height="398.2"/>
		<rect id="XMLID_38_" x="1371.4" y="565.4" class="st2" width="21.9" height="59.5"/>
		<rect id="XMLID_39_" x="1396.7" y="595.2" class="st2" width="11.4" height="280.3"/>
		<rect id="XMLID_40_" x="1298.8" y="889.5" class="st2" width="190.9" height="170.4"/>
		<rect id="XMLID_3_" x="1355.1" y="851.9" class="st2" width="78.4" height="37.6"/>
		<rect id="XMLID_46_" x="1390.9" y="585.8" class="st2" width="23" height="24.2"/>
		<polygon id="XMLID_60_" class="st2" points="1301.2,1059.9 1267.8,1059.9 1267.8,956.2 1301.2,926.5 		"/>
		<g id="XMLID_63_">
			<polygon id="XMLID_113_" class="st0" points="1474.8,1043 1473.8,1043 1473.8,902.2 1312.3,902.2 1312.3,901.2 1474.8,901.2 			
				"/>
		</g>
		<g id="XMLID_134_">
			<path id="XMLID_142_" class="st0" d="M1450.6,1016.7h-85V926h85V1016.7z M1366.6,1015.7h83V927h-83V1015.7z"/>
		</g>
		<g id="XMLID_51_">
			<path id="XMLID_64_" class="st2" d="M868.5,742.5c18.3-3,37.5-6.3,55.8-1.7c16.6,4.2,29.8,14.3,36.2,30.4
				c5.5,13.9,9.7,27.8,18.7,40c8,11,18.8,19.8,32.1,23.5c12.4,3.5,26.9,2.4,37.3-5.8c8.2-6.4,12.9-17,12.8-27.4
				c-0.3-26.7-32.1-34.2-50.6-19c-21.6,17.8-21.9,52.4-5.8,73.7c16.1,21.3,44.6,29,70.2,28.2c17.5-0.5,34.7-4.4,51.8-8.4
				c17.5-4.1,35.4-9.1,53.6-8.4c16.5,0.6,33,7.3,41.5,22.2c4.1,7.2,5.4,15.5,3,23.5c-2.4,7.8-7.3,14.5-10.8,21.9
				c-10,21.2-3.7,47.9,13.8,63.4c9.8,8.6,23.6,14,36.6,10.6c14.5-3.8,24.5-16.5,38.7-20.8c7.5-2.2,15.8-2.3,21.8,3.3
				c1.4,1.3,3.5-0.8,2.1-2.1c-8.3-7.7-20.1-6.4-29.9-2.2c-13.2,5.8-23.7,18.7-38.8,19.8c-27.7,1.9-47.6-28-46.2-53.2
				c0.8-14.3,9.9-24.6,14.7-37.5c4.3-11.5,1.6-23.5-5.9-33.1c-18.7-23.8-51.3-20-77.5-14.3c-31,6.8-63.2,17.1-95.1,9.9
				c-27.7-6.3-51.9-26.6-52.1-56.9c-0.1-14.7,6-30.4,18.4-39.1c11.5-8,29.5-8.3,38.6,3.7c7.4,9.8,5.6,24.1-1.2,33.7
				c-8.6,12.2-25,15.1-38.8,11.7c-14.4-3.6-25.9-13.6-34-25.7c-8.2-12.4-11.7-26.4-17.7-39.8c-12.3-27.2-43.7-33.1-70.6-30.5
				c-7.9,0.8-15.7,2.1-23.6,3.4C865.8,740,866.6,742.9,868.5,742.5L868.5,742.5z"/>
		</g>
	</g>
</g>
</svg>
